<?xml version="1.0" encoding="utf-8"?>
<!-- Generator: Adobe Illustrator 24.3.0, SVG Export Plug-In . SVG Version: 6.00 Build 0)  -->
<svg version="1.1" id="Layer_1" xmlns="http://www.w3.org/2000/svg" xmlns:xlink="http://www.w3.org/1999/xlink" x="0px" y="0px"
	 viewBox="0 0 1920 1080" style="enable-background:new 0 0 1920 1080;" xml:space="preserve">
<path d="M958.55,52.91c41.83,0.73,79.1,4.39,115.42,15.27c25.61,7.67,50.62,16.64,73.74,30.35c33.16,19.66,63.19,43.21,89.84,71.1
	c16.08,16.82,28.54,36.14,39.64,56.41c16.03,29.26,28.56,59.92,36,92.51c2.34,10.23,3.64,20.7,5.62,31.02
	c2.35,12.28,5,24.51,7.33,36.8c1.14,6.04,2.13,12.14,2.63,18.27c0.3,3.63,2.03,5.98,4.44,8.3c17.69,16.95,35.03,34.23,53.03,50.87
	c18.85,17.42,34.66,37.57,47.76,59.78c11.65,19.76,19.64,40.81,23.22,63.47c3.52,22.24,4.04,44.43-2.48,66.28
	c-7.29,24.41-31.56,39.29-56.67,35.39c-8.45-1.31-16.16-3.78-22.91-9.16c-2.54-2.03-5.34-3.78-8.19-5.37
	c-2.03-1.13-4.26-2.14-6.52-2.54c-7.96-1.39-13.54,3.3-13.72,11.35c-0.18,7.99,0.06,16-0.43,23.96
	c-2.43,39.3-8.63,77.84-24.19,114.36c-4.14,9.72-9.09,19.02-17.37,26.06c-0.82,0.69-1.44,1.63-2.1,2.5
	c-2.92,3.85-2.93,6.52,0.39,10.15c2.32,2.53,4.95,4.79,7.51,7.11c6,5.45,10.91,11.53,13.19,19.58c1.41,4.98,1.2,9.64-0.72,14.32
	c-3.81,9.31-10.3,16.14-19.34,20.51c-3.92,1.89-7.94,3.58-11.85,5.48c-3.2,1.56-5.31,3.86-6.42,7.55
	c-4.41,14.65-13.08,26.37-26.34,34.07c-15.29,8.87-31.98,12.46-49.68,11.06c-5.24-0.41-10.51-0.49-15.76-0.88
	c-3.12-0.23-5.45,0.76-7.73,2.99c-11.43,11.19-25.42,16.54-41.24,17.09c-14.77,0.51-27.24-5.12-37.88-15.13
	c-3.83-3.61-7.59-7.29-11.47-10.85c-2.96-2.71-6.21-3.35-10.43-2.8c-30.93,4.02-61.92,7.56-92.86,11.48
	c-14.43,1.83-28.87,3.37-43.42,2.65c-18.3-0.91-36.68-0.06-54.9-2.64c-2.85-0.4-5.81-0.22-8.71-0.05
	c-5.11,0.31-9.25,2.42-12.74,6.37c-10.66,12.08-23.34,21.26-39.11,25.52c-14.88,4.02-29.19,2.89-42.22-5.99
	c-3.26-2.22-6.12-5.11-8.9-7.96c-1.42-1.45-2.65-2.08-4.7-1.81c-10.61,1.36-21.22,2.69-31.86,3.78c-6.67,0.68-13.38,1.03-20.08,1.34
	c-8.38,0.38-15.64-2.69-22.07-7.83c-8.36-6.68-15.23-14.51-18.72-24.88c-0.69-2.06-1.71-4.01-2.4-6.07
	c-1.2-3.57-3.58-5.81-7.19-6.75c-3.33-0.86-6.64-2.13-10.03-2.38c-17.05-1.28-29.45-22.84-25.61-38.64c0.86-3.55,3.24-6.82,5.3-9.97
	c2.28-3.48,5.22-6.54,7.45-10.05c2.9-4.57,2.49-7.23-1.35-11.08c-26.95-27.06-43.25-59.69-50.66-96.93
	c-1.87-9.41-3.25-18.92-4.76-28.4c-0.68-4.27-1.79-5.74-6.08-6.33c-5.6-0.77-10.85-2.06-16.02-4.72c-3.05-1.57-7.44-0.84-11.2-0.68
	c-12.51,0.52-25.01,1.09-37.5,1.96c-5.45,0.38-9.09-1.85-11.68-6.28c-2.95-5.05-4.99-10.42-5.55-16.32
	c-0.73-7.75-2.15-15.48-2.3-23.24c-0.18-9.59,0.49-19.21,1.08-28.8c0.35-5.7-0.24-10.97-2.52-16.39
	c-6.96-16.54-10.35-33.93-10.76-51.89c-1.13-49.45,17.07-91.73,48.25-129.06c8.25-9.88,17.27-19.13,25.89-28.71
	c2.06-2.29,3.99-4.7,5.95-7.09c3.82-4.65,5.47-9.78,5.45-16.01c-0.08-21.13,3.4-41.88,8.32-62.37
	c13.01-54.21,33.55-105.35,62.53-153.06c17.99-29.62,41.89-53.81,69.19-74.71c42.69-32.67,89.78-56.81,141.9-70.54
	c21.43-5.64,43.31-9.15,65.42-10.85C937.99,53.78,950.34,53.35,958.55,52.91z M679.43,620.19c6.77-0.7,12.42-0.82,17.87-1.94
	c17.94-3.7,35.78-7.86,53.7-11.69c57.48-12.27,114.97-24.49,172.46-36.69c40.1-8.51,80.21-16.97,120.33-25.41
	c6.77-1.42,10.69,0.22,13.62,6.49c1.72,3.69,3.17,7.93,3.18,11.93c0.06,15.41-1.3,30.73-4.01,45.95
	c-4.43,24.87-13.43,47.92-28.14,68.35c-11.83,16.43-26.62,30.22-43.28,41.83c-17.46,12.17-35.82,21.69-57.89,22.73
	c-20.27,0.96-40.48,3.3-60.72,4.99c-15.72,1.32-31.46,2.45-47.17,3.89c-17.33,1.6-34.57,2.95-52.05,1.05
	c-30.16-3.28-52.78-16.85-65.62-45.04c-0.15-0.33-0.35-0.64-0.5-0.97c-3.04-6.6-11.13-5.4-14.03-1.54
	c-1.39,1.85-2.37,4.05-3.35,6.17c-1.22,2.63-2.12,5.41-3.4,8c-1.34,2.71-3.36,4.62-6.64,4.96c-4.32,0.45-8.61,1.28-12.94,1.68
	c-11.74,1.07-23.52,1.75-35.23,3.06c-8.53,0.95-10.03,3.27-9.26,11.84c0.08,0.9,0.17,1.81,0.34,2.69c1.7,9.08,3.47,18.15,5.1,27.24
	c1.63,9.1,2.69,18.31,4.75,27.31c4.07,17.69,11.66,33.9,22.32,48.6c3.4,4.7,6.95,9.34,10.86,13.61
	c16.7,18.25,36.24,33.05,57.74,45.07c58.13,32.51,120.09,52.59,186.98,55.94c12.87,0.64,25.77,0.61,38.65,0.97
	c23.09,0.63,46.12-0.57,69.06-2.94c20.01-2.07,39.98-4.65,59.9-7.44c9.12-1.28,18.18-3.22,27.1-5.52
	c19.33-4.99,38.16-11.6,56.65-19.1c22.06-8.95,43.11-19.93,63.58-32.1c18.65-11.09,35.98-23.71,50.68-39.84
	c10.08-11.06,19.19-22.65,25.47-36.38c11.98-26.2,18.78-53.64,20.66-82.34c0.45-6.87,0.53-13.78,1.28-20.62
	c1.97-17.85,3.1-35.75,3.1-53.7c0-26.7-0.15-53.4-0.39-80.1c-0.1-11.62-0.18-23.26-0.98-34.84c-1.52-22.04-3.56-44.05-5.38-66.08
	c-0.48-5.78-0.67-11.59-1.46-17.33c-2.98-21.7-6.27-43.36-9.23-65.07c-3.45-25.32-7.92-50.47-13.94-75.28
	c-8.93-36.81-23.99-71.04-45.25-102.46c-17.65-26.08-39.13-48.58-63.97-67.9c-12.48-9.7-25.12-19.18-39.29-26.34
	c-24.3-12.28-49.32-22.86-75.13-31.6c-27.73-9.39-56.34-13.91-85.46-15.05c-30-1.17-59.83,0.96-89.45,6.21
	c-46.99,8.33-90.96,24.24-131.07,50.45c-23.27,15.2-44.13,33.06-62.43,53.96c-28.79,32.9-50.14,70.19-65.72,110.9
	c-11.58,30.27-19.27,61.55-23.67,93.63c-1.52,11.12-2.32,22.34-3.32,33.52c-0.18,2.06-0.29,4.02,1.59,5.97
	c4.7,4.85,3.9,10.89-1.83,14.76c-23.96,16.2-42.08,37.69-56.7,62.34c-17.18,28.96-27.9,60.14-31.26,93.68
	c-0.75,7.51-1.48,15.13,0.7,22.68c9.19,31.93,25.63,59.54,49.27,82.82c6.08,5.99,12.97,10.95,20.98,14.39
	c7.05,3.03,20.39-0.04,25.1-6.94c2.77-4.05,4.16-8.41,5.05-13.04c2.26-11.74,4.12-23.57,6.7-35.24
	c4.76-21.57,14.62-40.52,30.38-56.2c8.66-8.61,18.83-14.72,30.68-17.91c4.15-1.12,8.12,0.97,10.49,5.63
	c1.76,3.45,1.17,6.23-2.43,8.98c-1.84,1.4-4.11,2.25-6.2,3.3C684.24,614.47,681.36,615.59,679.43,620.19z M784.78,734.68
	c3.74,0,7.94,0.34,12.07-0.06c24.35-2.36,48.69-4.92,73.03-7.35c18.03-1.8,36.06-3.68,54.12-5.2c12.76-1.08,25.08-3.25,36.52-9.5
	c16.47-9,30.52-20.9,42.75-34.97c9.8-11.27,18.4-23.38,24.04-37.36c6.81-16.88,11.68-34.29,13.87-52.38
	c0.65-5.35,1.92-10.73,0.21-16.17c-1.52-4.83-2.81-5.66-7.88-4.65c-49.43,9.88-98.87,19.77-148.31,29.62
	c-57.43,11.44-114.87,22.84-172.29,34.28c-9.77,1.95-10.03,2.32-10.74,12.21c-0.04,0.54-0.07,1.09-0.07,1.63
	c0,9.78-0.27,19.56,0.07,29.33c0.31,8.7,1.04,17.48,5.89,25.12c9.67,15.25,23.12,25.82,40.14,31.86c1.18,0.42,2.43,0.66,3.67,0.88
	C762.61,733.89,773.41,735.07,784.78,734.68z M1436.04,617.22c1.01-14.54-3.74-28.54-8.13-42.5c-5.21-16.56-14.3-31.27-23.78-45.67
	c-14.23-21.62-31.27-40.86-50.02-58.64c-3.42-3.24-6.67-6.7-10.3-9.68c-2.17-1.78-4.81-3.32-7.49-4.08
	c-3.84-1.09-6.44,1.07-6.25,5.14c0.53,11.4,1.39,22.78,2.06,34.16c1.13,18.99,2.25,37.98,3.31,56.97
	c0.92,16.47,1.86,32.93,2.56,49.41c0.26,6.19,1.44,11.69,7.05,15.31c0.3,0.19,0.5,0.52,0.76,0.77
	c10.63,10.41,21.15,20.94,31.95,31.17c6.2,5.87,13.01,11.13,21.16,14.07c14.92,5.39,23.42,2.51,30.4-11.64
	C1434.65,641.23,1436.7,629.71,1436.04,617.22z M683.69,898.9c-6.26,6.76-12.62,13.2-18.46,20.09c-4.03,4.75-2.76,7.56,3.48,8.97
	c5.48,1.24,11.02,2.23,16.51,3.43c5.83,1.27,10.27,4.42,12.84,9.94c1.76,3.78,3.49,7.57,5.28,11.33c2.8,5.88,5.34,11.91,8.58,17.54
	c2.63,4.56,7.04,7.06,12.33,8.14c7.06,1.44,14.09,1.34,21.11,0.19c7.15-1.17,14.24-2.76,21.39-3.96c3.74-0.63,7.55-0.85,11.34-1.16
	c8.73-0.72,15.98,2.19,21.86,8.76c3.96,4.42,8.92,7.66,14.7,8.88c15.86,3.35,27.02-6.86,32.61-17.23c0.34-0.63,0.59-1.33,0.78-2.03
	c0.67-2.44,0.08-4.28-2.5-5.19c-3.41-1.21-6.75-2.68-10.23-3.64c-11.7-3.25-23.49-6.15-35.16-9.49
	c-35.48-10.14-68.06-26.85-100.12-44.68C694.7,905.8,689.55,902.45,683.69,898.9z M1223.97,959.61c0.01-0.12,0.02-0.23,0.03-0.35
	c0.73,0,1.45,0.03,2.18,0c13.24-0.61,23.56-5.86,28.53-18.81c2.27-5.9,4.01-12.03,5.64-18.15c3.18-11.97,11.14-18.24,23.56-18.38
	c2.89-0.03,5.84-0.2,8.63-0.84c5.14-1.17,6.52-4.1,4.26-8.87c-0.91-1.93-2.21-3.83-3.78-5.25c-3.89-3.52-8.02-6.78-12.1-10.1
	c-3.32-2.7-6.77-2.69-10.65-0.9c-8.12,3.74-15.49,8.63-22.86,13.61c-36.34,24.57-74.13,46.35-116.32,59.56
	c-2.56,0.8-5.05,2.08-7.31,3.54c-3.64,2.36-4.28,5.18-1.89,8.82c4.06,6.17,9.37,11.2,16.04,14.35c2.8,1.32,6.33,1.69,9.49,1.56
	c8.31-0.33,14.14-4.92,18.43-11.8c4.39-7.04,11.28-10.1,19.11-11.03c4.1-0.48,8.35-0.13,12.49,0.24
	C1206.3,957.62,1215.13,958.67,1223.97,959.61z M651.88,666c0.33,3.53,0.32,7.02,1.02,10.36c2.23,10.78,4.68,21.51,7.15,32.24
	c0.7,3.05,2.73,5.18,5.86,5.77c3.37,0.64,6.59,0.15,8.77-2.89c4.14-5.79,6.28-12.23,5.53-19.39c-0.41-3.96-2.38-6.28-6.52-6.85
	c-3.66-0.5-5.19-2.51-5.34-5.68c-0.29-6.11-0.35-12.23-0.31-18.34c0.03-4.52,0.54-9.03,0.49-13.54c-0.03-2.81-1.05-5.36-4.27-6.2
	c-3.04-0.79-6.36,0.21-8.02,3.08c-1.33,2.3-2.4,4.92-2.85,7.52C652.58,656.68,652.34,661.4,651.88,666z M695.9,634.56
	c-6.12,0.46-11.34,0.61-16.48,1.32c-4.61,0.63-6.15,2.58-6.35,7.31c-0.18,4.34-0.45,8.74,0.05,13.02
	c0.85,7.34,2.19,14.62,3.47,21.91c0.48,2.74,2.15,4.64,5.17,4.63c4.27-0.03,8.58,0.13,12.74-1.36
	C694.97,665.94,695.42,650.82,695.9,634.56z M657.13,711.52c-9.82-19.63-10.4-39.81-10.5-61.23c-5.68,5.88-8.92,11.71-10.67,18.16
	c-2.27,8.37-4.08,16.89-5.69,25.42c-0.76,4.05-0.9,8.29-0.75,12.42c0.2,5.45,2.67,7.35,8.08,6.99c2.17-0.14,4.35-0.16,6.51-0.37
	C648.21,712.52,652.3,712.04,657.13,711.52z M524.99,682.12c-0.65,1.64-1.21,2.43-1.26,3.25c-0.41,7.59-1.13,15.2-0.94,22.78
	c0.12,4.8,1.53,9.6,2.59,14.35c0.71,3.18,2.65,5,6.25,4.63c5.75-0.6,11.51-1.02,17.26-1.55c7.12-0.66,7.13-3.71,3.22-8.76
	c-7.64-9.88-14.81-20.12-22.28-30.12C528.64,685.08,526.89,683.88,524.99,682.12z"/>
<path d="M984.49,472.62c-17.36-1.13-34.81-1.57-52.07-3.57c-18.19-2.12-36.08-6.13-52.91-13.91c-10.36-4.79-19.75-10.74-26.93-19.77
	c-1.02-1.28-1.97-2.61-2.92-3.93c-7.91-10.91-7.75-22.53-3.17-34.61c6.01-15.86,16.9-27.81,30.46-37.41
	c23.01-16.28,48.76-26.19,76.24-31.87c19.44-4.02,39.1-5.99,58.93-5.34c29.24,0.95,57.69,5.87,84.45,18.36
	c14.95,6.98,28.47,15.95,39.24,28.66c6.06,7.15,10.51,15.16,13.43,24.07c1.28,3.91,1.52,7.83,0.81,11.8
	c-2.88,16.21-11.19,28.88-24.97,37.94c-13.16,8.65-27.8,13.8-42.64,18.67c-24.25,7.95-49.16,10.51-74.49,10.38
	c-7.81-0.04-15.61-0.01-23.42-0.01C984.51,472.26,984.5,472.44,984.49,472.62z M859.31,415.95c-0.73,8.46,2.97,14.52,8.48,19.59
	c7.31,6.73,15.79,11.51,25.45,14.08c27.17,7.24,54.97,9.63,82.92,10.37c13.77,0.36,27.58-0.12,41.36-0.56
	c19.97-0.65,39.8-2.81,59.22-7.69c15.57-3.91,30.35-9.85,43.73-18.9c5.61-3.79,10.63-8.24,14.22-14.06
	c3.27-5.3,4.51-10.94,2.71-17.15c-0.92-3.18-2.44-4.79-5.97-5.02c-12.29-0.82-24.55-2.09-36.84-2.9
	c-7.41-0.49-14.85-0.75-22.27-0.57c-13.23,0.31-26.45,0.95-39.67,1.59c-12.14,0.59-24.29,1.13-36.39,2.12
	c-12.09,0.98-24.15,2.42-36.21,3.78c-14.21,1.61-28.45,3.05-42.59,5.11c-17.38,2.53-34.69,5.61-52.01,8.51
	C863.37,414.59,861.37,415.37,859.31,415.95z M860.07,403.54c89.91-16.45,179.33-22.29,270.01-19.26
	c-3.04-7.57-7.6-12.88-12.87-17.58c-12.42-11.1-27.23-17.84-42.93-22.78c-21.09-6.63-42.74-9.52-64.83-9.86
	c-25.95-0.4-51.41,2.62-76.3,9.97c-19.28,5.69-37.5,13.63-53.02,26.8c-8.45,7.17-15.19,15.58-18.65,26.28
	C860.96,398.75,860.73,400.5,860.07,403.54z"/>
<path d="M1205.27,320.1c-0.67,20.18-17.07,36.25-36.41,35.67c-19.51-0.58-34.97-16.99-34.36-36.26
	c0.68-21.83,18.94-36.64,38.09-35.58C1190.73,284.94,1205.9,301.37,1205.27,320.1z"/>
<path d="M834.68,330.14c0.05,19.93-15.99,36.39-35.59,36.54c-19.29,0.15-35.13-15.78-35.24-35.42
	c-0.1-19.96,15.94-36.34,35.61-36.36C819.11,294.88,834.63,310.41,834.68,330.14z"/>
</svg>
